<?xml version="1.0" encoding="UTF-8"?>
<svg width="71px" height="71px" viewBox="0 0 71 71" version="1.1" xmlns="http://www.w3.org/2000/svg" xmlns:xlink="http://www.w3.org/1999/xlink">
    <title>Group 3</title>
    <defs>
        <polygon id="path-1" points="0 0 71 0 71 71 0 71"></polygon>
    </defs>
    <g id="OMC" stroke="none" stroke-width="1" fill="none" fill-rule="evenodd">
        <g id="Desktop-HD" transform="translate(-392.000000, -2327.000000)">
            <g id="footer" transform="translate(0.000000, 2258.000000)">
                <g id="Group-3" transform="translate(392.000000, 69.000000)">
                    <mask id="mask-2" fill="white">
                        <use xlink:href="#path-1"></use>
                    </mask>
                    <g id="Clip-2"></g>
                    <path d="M56.6624763,48.7332111 C56.6624763,51.4886806 54.4208747,53.7307646 51.665177,53.7307646 C48.9097167,53.7307646 46.6676402,51.4886806 46.6676402,48.7332111 L46.6676402,30.7490472 C46.6676402,27.4258143 43.9639457,24.7221107 40.6409613,24.7221107 L30.3590387,24.7221107 C27.0358168,24.7221107 24.3323598,27.4258143 24.3323598,30.7490472 L24.3323598,48.7332111 C24.3323598,51.4886806 22.0902833,53.7307646 19.334823,53.7307646 C16.5791253,53.7307646 14.3375237,51.4886806 14.3375237,48.7332111 L14.3375237,21.4048142 C14.3375237,19.3866537 15.9793069,17.744865 17.9974607,17.744865 L53.0025393,17.744865 C55.0206931,17.744865 56.6624763,19.3866537 56.6624763,21.4048142 L56.6624763,48.7332111 Z M40.4975368,48.7332111 C40.4975368,51.4886806 38.2554603,53.7307646 35.5,53.7307646 C32.7443023,53.7307646 30.5024632,51.4886806 30.5024632,48.7332111 L30.5024632,36.5143044 C30.5024632,33.7585974 32.7443023,31.5167509 35.5,31.5167509 C38.2554603,31.5167509 40.4975368,33.7585974 40.4975368,36.5143044 L40.4975368,48.7332111 Z M60.6023761,10.3976587 C46.7386401,-3.46588623 24.2613599,-3.46588623 10.3976239,10.3976587 C-3.46587464,24.2612036 -3.46587464,46.7387964 10.3976239,60.6023413 C24.2613599,74.4658862 46.7386401,74.4658862 60.6023761,60.6023413 C74.4658746,46.7387964 74.4658746,24.2612036 60.6023761,10.3976587 L60.6023761,10.3976587 Z" id="Fill-1" fill="#FFFFFF" mask="url(#mask-2)"></path>
                </g>
            </g>
        </g>
    </g>
</svg>