<?xml version="1.0" encoding="UTF-8"?>
<svg width="252px" height="40px" viewBox="0 0 252 40" version="1.1" xmlns="http://www.w3.org/2000/svg" xmlns:xlink="http://www.w3.org/1999/xlink">
    <title>OMC-logo</title>
    <defs>
        <polygon id="path-1" points="0 0 16 0 16 21 0 21"></polygon>
        <polygon id="path-3" points="0 0 40 0 40 40 0 40"></polygon>
    </defs>
    <g id="OMC" stroke="none" stroke-width="1" fill="none" fill-rule="evenodd">
        <g id="Desktop-HD" transform="translate(-384.000000, -29.000000)">
            <g id="OMC-logo" transform="translate(384.000000, 29.000000)">
                <path d="M51.3482629,18.4997487 C51.3482629,19.4722734 51.5046433,20.4151449 51.8179104,21.3288658 C52.1311774,22.2430893 52.5765328,23.054783 53.1544827,23.7644497 C53.7314203,24.4746189 54.4318429,25.0330039 55.2542321,25.441615 C56.0766214,25.8497236 56.9966851,26.0537779 58.0149295,26.0537779 C59.0721425,26.0537779 60.0119436,25.8401742 60.8343329,25.4124644 C61.6567221,24.9847546 62.3465169,24.4057631 62.9047294,23.6769978 C63.4624358,22.9477299 63.8885599,22.1310102 64.1820896,21.2268387 C64.4761254,20.3226671 64.6223842,19.4139722 64.6223842,18.4997487 C64.6223842,17.5277266 64.4710646,16.5893785 64.1679192,15.6852069 C63.8632556,14.7810353 63.4189124,13.9748702 62.8308409,13.2641984 C62.2437815,12.5550343 61.543865,11.9956442 60.7315975,11.5875356 C59.9188239,11.179427 59.0134366,10.9748702 58.0149295,10.9748702 C56.9572105,10.9748702 56.0179154,11.1889764 55.1955262,11.6166862 C54.373137,12.044396 53.6777752,12.6183615 53.1099471,13.3375775 C52.542119,14.057296 52.1068853,14.8639638 51.8032339,15.7580834 C51.4995825,16.6532082 51.3482629,17.5669291 51.3482629,18.4997487 M57.9855766,29 C56.4774412,29 55.1170829,28.7079913 53.9029834,28.1244765 C52.6888838,27.5414642 51.6417926,26.7493718 50.7606974,25.7476964 C49.8796022,24.7465237 49.198917,23.6186966 48.7196538,22.3642151 C48.2393785,21.1102362 48,19.8220808 48,18.4997487 C48,17.1191154 48.2545611,15.8018093 48.7636833,14.5478305 C49.2722994,13.2938516 49.9777828,12.1755738 50.8781093,11.1934997 C51.7784357,10.2119283 52.8407095,9.43390853 54.0649308,8.86044564 C55.2881399,8.28698274 56.6145905,8 58.0437764,8 C59.5316683,8 60.8879779,8.30155805 62.1116931,8.90417155 C63.3349022,9.50678506 64.3824996,10.314458 65.2544852,11.3251801 C66.1249526,12.3364048 66.8005769,13.4642319 67.2803462,14.7086614 C67.7601154,15.953091 68,17.2266711 68,18.5288993 C68,19.9100352 67.7504998,21.2268387 67.2509932,22.4813202 C66.7519927,23.735299 66.0520762,24.8535768 65.1512437,25.8351483 C64.2504112,26.8172223 63.1886434,27.5902161 61.9649283,28.1536271 C60.7412131,28.7180432 59.4142564,29 57.9855766,29" id="Fill-1" fill="#FFFFFF"></path>
                <path d="M83,29 L79.7166844,29 L79.7166844,20.7564253 C79.7166844,19.3874828 79.4826395,18.3839513 79.0150641,17.7463214 C78.5469743,17.1082009 77.8556417,16.7893859 76.9400375,16.7893859 C76.3032296,16.7893859 75.6715656,16.9389837 75.0450454,17.2371984 C74.4180108,17.535413 73.8557887,17.9415342 73.358379,18.4545811 C72.8604549,18.967628 72.5024433,19.5596429 72.28383,20.2311163 L72.28383,29 L69,29 L69,14.2275849 L71.9849726,14.2275849 L71.9849726,17.2141456 C72.3831061,16.5564057 72.9052063,15.9879341 73.5523019,15.5087306 C74.1988831,15.0290367 74.9303377,14.6582303 75.7461513,14.3948401 C76.5619649,14.1319404 77.4276739,14 78.3432781,14 C79.2784289,14 80.0494911,14.159898 80.6564647,14.4796939 C81.2634383,14.7989994 81.7413014,15.2360212 82.0895396,15.7907593 C82.4372635,16.3450069 82.6764522,16.9841083 82.8060771,17.7075731 C82.9351876,18.4320188 83,19.1976653 83,20.0059839 L83,29 Z" id="Fill-3" fill="#FFFFFF"></path>
                <path d="M89.1722561,20.4525704 L97.9663352,20.4525704 C97.9107069,19.6308966 97.6742863,18.9050125 97.2565939,18.2753995 C96.8393811,17.6453052 96.3104319,17.1528785 95.6707056,16.7966754 C95.0304997,16.4409537 94.3207583,16.2623708 93.5414815,16.2623708 C92.7804278,16.2623708 92.0802775,16.4409537 91.4400716,16.7966754 C90.8003453,17.1528785 90.2761917,17.6453052 89.8680904,18.2753995 C89.4599891,18.9050125 89.2283641,19.6308966 89.1722561,20.4525704 M93.5414815,29 C92.4097318,29 91.3844432,28.8012002 90.466575,28.4040819 C89.5482272,28.0069636 88.7550433,27.4615878 88.0870232,26.7684359 C87.4190032,26.075284 86.9044407,25.2800847 86.5423767,24.3838008 C86.1807922,23.4875168 86,22.5310635 86,21.5139593 C86,20.1512419 86.3150676,18.9035684 86.9456824,17.770939 C87.5762972,16.6383095 88.4577192,15.7266222 89.5899485,15.0363584 C90.7212187,14.3451319 92.0476678,14 93.5692957,14 C95.0904441,14 96.402986,14.3460946 97.5069216,15.0373211 C98.6108571,15.7285476 99.4692605,16.6368654 100.081173,17.7617932 C100.693564,18.886721 101,20.0944419 101,21.384956 C101,21.6068609 100.990409,21.8143251 100.971706,22.00783 C100.953004,22.201335 100.934301,22.3621077 100.916557,22.4915923 L89.2556987,22.4915923 C89.3118066,23.3378153 89.5482272,24.0771773 89.9654401,24.7111225 C90.3826529,25.3455491 90.915918,25.8413452 91.565715,26.1994737 C92.2150324,26.5585649 92.9103872,26.7376292 93.6527383,26.7376292 C94.4689408,26.7376292 95.2434221,26.5330531 95.9766617,26.1229382 C96.7089421,25.713786 97.2052815,25.1732238 97.4652003,24.5026956 L100.081173,25.2569797 C99.7656255,25.9650536 99.2879887,26.6023683 98.6477829,27.1708491 C98.0080565,27.7388486 97.2517983,28.1855465 96.3799674,28.5114242 C95.5076569,28.8368205 94.5614949,29 93.5414815,29" id="Fill-5" fill="#FFFFFF"></path>
                <polygon id="Fill-7" fill="#FFFFFF" points="121.658002 29 121.658002 14.0336391 115.476045 25.3914373 113.523955 25.3914373 107.312946 14.0336391 107.312946 29 104 29 104 8 107.549439 8 114.50051 20.8363914 121.450561 8 125 8 125 29"></polygon>
                <path d="M130.172358,20.4525704 L138.966718,20.4525704 C138.911088,19.6308966 138.67466,18.9050125 138.256954,18.2753995 C137.839248,17.6453052 137.310762,17.1528785 136.671015,16.7966754 C136.030309,16.4409537 135.321024,16.2623708 134.541723,16.2623708 C133.780645,16.2623708 133.080472,16.4409537 132.440246,16.7966754 C131.800499,17.1528785 131.275849,17.6453052 130.868214,18.2753995 C130.45962,18.9050125 130.227988,19.6308966 130.172358,20.4525704 M134.541723,29 C133.409457,29 132.384615,28.8012002 131.466718,28.4040819 C130.548341,28.0069636 129.755131,27.4615878 129.08709,26.7684359 C128.419049,26.075284 127.90447,25.2800847 127.542394,24.3838008 C127.180318,23.4875168 127,22.5310635 127,21.5139593 C127,20.1512419 127.315078,18.9035684 127.945713,17.770939 C128.576348,16.6383095 129.457798,15.7266222 130.590063,15.0363584 C131.72137,14.3451319 133.047861,14 134.569538,14 C136.090255,14 137.403319,14.3460946 138.507289,15.0373211 C139.610781,15.7285476 140.469691,16.6368654 141.081623,17.7617932 C141.694034,18.886721 142,20.0944419 142,21.384956 C142,21.6068609 141.990409,21.8143251 141.972185,22.00783 C141.953482,22.201335 141.934778,22.3621077 141.916555,22.4915923 L130.255803,22.4915923 C130.311433,23.3378153 130.548341,24.0771773 130.965567,24.7111225 C131.382793,25.3455491 131.916075,25.8413452 132.565893,26.1994737 C133.214752,26.5585649 133.910608,26.7376292 134.652983,26.7376292 C135.469212,26.7376292 136.243718,26.5330531 136.976981,26.1229382 C137.709284,25.713786 138.20564,25.1732238 138.465567,24.5026956 L141.081623,25.2569797 C140.766066,25.9650536 140.288414,26.6023683 139.648187,27.1708491 C139.00844,27.7388486 138.252158,28.1855465 137.380299,28.5114242 C136.507961,28.8368205 135.561769,29 134.541723,29" id="Fill-9" fill="#FFFFFF"></path>
                <path d="M153,28.0014504 C152.747568,28.1346887 152.432726,28.27776 152.054078,28.4296812 C151.67543,28.582094 151.247413,28.7148406 150.770027,28.8289043 C150.292641,28.9429681 149.801283,29 149.29735,29 C148.684434,29 148.116694,28.8864279 147.594597,28.6592837 C147.071569,28.4321394 146.652867,28.0678237 146.33756,27.5663364 C146.022252,27.0638659 145.864831,26.415374 145.864831,25.6203692 L145.864831,16.3320386 L144,16.3320386 L144,13.9072003 L145.864831,13.9072003 L145.864831,9 L148.837663,9 L148.837663,13.9072003 L151.919013,13.9072003 L151.919013,16.3320386 L148.837663,16.3320386 L148.837663,24.6149365 C148.873525,25.1262568 149.031412,25.5043388 149.310857,25.7496743 C149.589836,25.995993 149.936349,26.1184149 150.351325,26.1184149 C150.765369,26.1184149 151.162182,26.0427002 151.540364,25.8902874 C151.919013,25.7383662 152.197992,25.614961 152.378234,25.5190885 L153,28.0014504 Z" id="Fill-11" fill="#FFFFFF"></path>
                <path d="M163.361431,25.3638406 C163.586214,25.126051 163.76449,24.8882613 163.895775,24.6499904 C164.026575,24.4117194 164.09246,24.2008857 164.09246,24.0179706 L164.09246,22.3698094 C163.567321,22.1681214 163.014568,22.0169758 162.433717,21.9163725 C161.852867,21.8157692 161.281221,21.7652269 160.718779,21.7652269 C159.59438,21.7652269 158.680716,21.9852063 157.977785,22.4251653 C157.275338,22.8641615 156.923631,23.468744 156.923631,24.2379501 C156.923631,24.6591361 157.040382,25.0620307 157.275338,25.4461524 C157.509326,25.8312368 157.8465,26.1426738 158.286861,26.3804634 C158.727222,26.6187344 159.275131,26.7376292 159.931555,26.7376292 C160.606388,26.7376292 161.253123,26.6095886 161.871276,26.3530261 C162.489913,26.0964636 162.98647,25.7672165 163.361431,25.3638406 M154,24.4887363 C154,23.5654964 154.26693,22.7587446 154.801273,22.0665554 C155.335133,21.3743662 156.070521,20.8395803 157.007924,20.4612348 C157.944842,20.0833708 159.031939,19.8937167 160.269213,19.8937167 C160.924669,19.8937167 161.594657,19.9404082 162.279179,20.0333098 C162.962732,20.1266928 163.567321,20.275913 164.09246,20.4800077 L164.09246,19.5635068 C164.09246,18.5555484 163.783384,17.7666068 163.164746,17.1986073 C162.546109,16.6301264 161.655697,16.3461267 160.493996,16.3461267 C159.668985,16.3461267 158.89145,16.4905333 158.160905,16.7793466 C157.429876,17.0681599 156.651372,17.4729799 155.82733,17.9942879 L154.78674,15.9273474 C155.761445,15.2755921 156.740994,14.7913484 157.724904,14.4746165 C158.708813,14.158366 159.744559,14 160.831171,14 C162.79899,14 164.349701,14.5111995 165.483788,15.5326359 C166.617876,16.5545536 167.185162,18.0048777 167.185162,19.8821642 L167.185162,25.2685322 C167.185162,25.6184776 167.245718,25.8663757 167.367798,26.0141519 C167.489394,26.161928 167.700128,26.2442398 168,26.2625313 L168,28.7208138 C167.719021,28.776651 167.466141,28.8137154 167.240873,28.8324883 C167.016091,28.8507798 166.82861,28.8604069 166.678916,28.8604069 C166.022492,28.8604069 165.525935,28.7025223 165.188761,28.3857904 C164.851587,28.0690585 164.654902,27.6969707 164.598221,27.2680829 L164.513928,26.430043 C163.876397,27.2497914 163.061559,27.8827739 162.068445,28.3294718 C161.074362,28.776651 160.072044,29 159.060037,29 C158.085332,29 157.213814,28.8012002 156.445967,28.4050446 C155.677151,28.0084077 155.077408,27.4683268 154.646735,26.7857647 C154.215094,26.1032026 154,25.337366 154,24.4887363" id="Fill-13" fill="#FFFFFF"></path>
                <path d="M174,18.3250921 C174,17.0610311 174.232065,15.8215978 174.698814,14.6062898 C175.164516,13.3914844 175.848663,12.2827294 176.750731,11.2810301 C177.652275,10.2798334 178.751833,9.48319851 180.049407,8.88961754 C181.345933,8.29653918 182.815853,8 184.456548,8 C186.402647,8 188.084726,8.42269398 189.503309,9.26858456 C190.921891,10.1144751 191.975352,11.1986023 192.665261,12.5204634 L189.989964,14.2413958 C189.584505,13.40606 189.072705,12.7446269 188.455087,12.2581016 C187.836421,11.7720789 187.167466,11.4323154 186.448222,11.2373031 C185.728977,11.0432962 185.024924,10.9457901 184.335015,10.9457901 C183.200358,10.9457901 182.207141,11.1644249 181.35641,11.6021971 C180.50568,12.0394668 179.790626,12.6184721 179.212821,13.3372026 C178.635539,14.0569384 178.199697,14.8641281 177.905817,15.7582691 C177.612462,16.6529127 177.465261,17.5475564 177.465261,18.4416974 C177.465261,19.4333445 177.636559,20.3908142 177.982299,21.3146092 C178.326468,22.2384041 178.807885,23.0551434 179.426027,23.7643244 C180.044169,24.4745106 180.778605,25.0334115 181.629336,25.4415298 C182.481114,25.8501508 183.413565,26.0542099 184.426689,26.0542099 C185.115026,26.0542099 185.834795,25.9376047 186.584422,25.7043942 C187.335098,25.4706812 188.029198,25.1062898 188.66777,24.6102149 C189.305817,24.1146427 189.807141,23.4582356 190.172787,22.6414963 L193,24.1875209 C192.553157,25.2183715 191.859581,26.0934134 190.916653,26.8126466 C189.974249,27.5318798 188.920265,28.0767077 187.755749,28.4456225 C186.590185,28.8155426 185.440336,29 184.30568,29 C182.784946,29 181.396747,28.6934086 180.140557,28.0812312 C178.88332,27.4690537 177.8,26.6523144 176.887979,25.631516 C175.975434,24.6102149 175.266143,23.4632617 174.759581,22.1891484 C174.252495,20.9160404 174,19.6278541 174,18.3250921" id="Fill-15" fill="#FFFFFF"></path>
                <path d="M194,8 L197.262339,8 L197.262339,24.4824302 C197.262339,25.2418788 197.380914,25.7260089 197.618575,25.9343316 C197.856235,26.1431432 198.152672,26.2473046 198.508397,26.2473046 C198.903987,26.2473046 199.274022,26.20965 199.620546,26.1343409 C199.96656,26.0585427 200.268107,25.9636728 200.524679,25.8502201 L201,28.3187947 C200.524679,28.5085346 199.961449,28.6694223 199.309798,28.8014577 C198.656615,28.9334932 198.073452,29 197.559287,29 C196.451227,29 195.581849,28.7016976 194.949109,28.1041148 C194.315859,27.5065319 194,26.6761754 194,25.6140232 L194,8 Z" id="Fill-17" fill="#FFFFFF"></path>
                <path d="M206.150384,21.5276771 C206.150384,22.4455925 206.345452,23.2720534 206.736547,24.006097 C207.126201,24.7406219 207.64606,25.3187113 208.297085,25.7408465 C208.94811,26.1634631 209.681775,26.37429 210.5,26.37429 C211.299007,26.37429 212.028347,26.1586497 212.688501,25.727369 C213.347694,25.295607 213.873799,24.7083721 214.263933,23.9647017 C214.654068,23.2215127 214.849135,22.3998652 214.849135,21.4997593 C214.849135,20.5823252 214.654068,19.7558643 214.263933,19.0218207 C213.873799,18.2877772 213.347694,17.7048744 212.688501,17.2731123 C212.028347,16.8418317 211.299007,16.62571 210.5,16.62571 C209.681775,16.62571 208.94811,16.8461637 208.297085,17.2870712 C207.64606,17.7279787 207.126201,18.3104002 206.736547,19.0352983 C206.345452,19.7606777 206.150384,20.5914707 206.150384,21.5276771 M210.5,29 C209.346893,29 208.315343,28.8012066 207.404388,28.4050637 C206.493914,28.0084395 205.709321,27.4592305 205.049167,26.7583994 C204.389013,26.0575683 203.882127,25.2590251 203.529468,24.3646953 C203.176329,23.4694028 203,22.5153868 203,21.4997593 C203,20.4850945 203.176329,19.5262651 203.529468,18.6213458 C203.882127,17.7173892 204.389013,16.9198087 205.049167,16.2281231 C205.709321,15.5364374 206.498719,14.9920418 207.418802,14.5954176 C208.338885,14.1987934 209.366111,14 210.5,14 C211.633889,14 212.661115,14.1987934 213.580237,14.5954176 C214.501281,14.9920418 215.290679,15.5364374 215.950352,16.2281231 C216.610506,16.9198087 217.116912,17.7173892 217.470532,18.6213458 C217.82319,19.5262651 218,20.4850945 218,21.4997593 C218,22.5153868 217.82319,23.4694028 217.470532,24.3646953 C217.116912,25.2590251 216.610506,26.0575683 215.950352,26.7583994 C215.290679,27.4592305 214.501281,28.0084395 213.580237,28.4050637 C212.661115,28.8012066 211.633889,29 210.5,29" id="Fill-19" fill="#FFFFFF"></path>
                <path d="M219,23.0054727 L219,14 L222.273557,14 L222.273557,22.3726953 C222.273557,23.6841814 222.525882,24.6721936 223.032071,25.3372207 C223.538259,26.0022477 224.277284,26.3345169 225.249658,26.3345169 C225.864572,26.3345169 226.4641,26.2133364 227.050294,25.9709753 C227.634437,25.7291029 228.170883,25.369959 228.657583,24.8940322 C229.143258,24.418594 229.535079,23.8454297 229.833048,23.1740504 L229.833048,14 L233.106606,14 L233.106606,25.2096879 C233.106606,25.5659001 233.176354,25.819011 233.315338,25.9685322 C233.453809,26.1180533 233.68203,26.2025865 234,26.2211545 L234,28.7165939 C233.661515,28.7732751 233.38406,28.8108997 233.166097,28.8294677 C232.94762,28.8485243 232.739401,28.858297 232.541439,28.858297 C231.946013,28.858297 231.450082,28.7034009 231.053132,28.3940973 C230.656182,28.0843052 230.428474,27.6855821 230.36847,27.1984168 L230.308466,25.7354551 C229.614572,26.8050687 228.711433,27.6166851 227.600588,28.1698156 C226.489743,28.7229461 225.268634,29 223.939825,29 C222.31356,29 221.083219,28.4937781 220.249829,27.480357 C219.416439,26.4674246 219,24.9756336 219,23.0054727" id="Fill-21" fill="#FFFFFF"></path>
                <g id="Group-25" transform="translate(236.000000, 8.000000)">
                    <mask id="mask-2" fill="white">
                        <use xlink:href="#path-1"></use>
                    </mask>
                    <g id="Clip-24"></g>
                    <path d="M12.0001723,15.4227231 L12.0001723,11.5902708 C11.7904376,10.993177 11.4522035,10.4572107 10.98547,9.98139394 C10.5187364,9.50606618 9.99489202,9.12805347 9.41442911,8.84833384 C8.83347385,8.56861421 8.25744195,8.4287544 7.68534873,8.4287544 C7.01872719,8.4287544 6.4146322,8.56861421 5.87207907,8.84833384 C5.32903361,9.12805347 4.86180773,9.50117598 4.47187844,9.96770137 C4.08145682,10.4342268 3.78064016,10.9653028 3.5713978,11.5619076 C3.36215544,12.1590015 3.25679576,12.7839694 3.25679576,13.4363226 C3.25679576,14.1082365 3.37200214,14.7380947 3.60044556,15.3254081 C3.82888898,15.9127215 4.1572764,16.4349952 4.58610015,16.8917402 C5.0149239,17.3484852 5.5092282,17.7030249 6.07147473,17.9548704 C6.63322892,18.2067159 7.24766295,18.3328831 7.91477682,18.3328831 C8.33326153,18.3328831 8.75716194,18.258063 9.18598569,18.1089118 C9.61480944,17.9592716 10.0244321,17.7543721 10.4148537,17.4932352 C10.8042907,17.2325874 11.1380938,16.9245046 11.4142937,16.5699648 C11.690986,16.2159141 11.8859506,15.8335002 12.0001723,15.4227231 M0,13.3805742 C0,11.9751298 0.290477626,10.6958526 0.871432879,9.54274271 C1.45238813,8.39012179 2.24750909,7.47174161 3.25679576,6.78711315 C4.26657476,6.10297371 5.4289776,5.7611485 6.74351195,5.7611485 C7.88622139,5.7611485 8.91914014,6.0545607 9.84276052,6.64040705 C10.7663809,7.22723145 11.4861746,7.95587174 12.0001723,8.8258389 L12.0001723,0 L15.1427464,0 L15.1427464,17.1973779 C15.1427464,17.5568079 15.2097039,17.8125655 15.3431267,17.9636728 C15.4760571,18.1152691 15.6951462,18.2003586 16.0003939,18.2189414 L16.0003939,20.7163682 C15.4090996,20.8107491 14.9527051,20.8581841 14.6282563,20.8581841 C14.0384391,20.8581841 13.5382267,20.688005 13.128604,20.3476469 C12.7189814,20.0067997 12.5048157,19.5999348 12.4856146,19.1270521 L12.4575515,18.0203991 C11.8859506,18.9666535 11.1144617,19.6996949 10.1430848,20.2200126 C9.17170797,20.7398412 8.16192897,21 7.11473251,21 C6.08624478,21 5.13800764,20.8029248 4.27149811,20.4097525 C3.40498858,20.0165801 2.65270076,19.4634981 2.01463466,18.7514845 C1.37607621,18.0389819 0.881771914,17.223785 0.529260082,16.3049158 C0.176255916,15.3865356 0,14.4119181 0,13.3805742" id="Fill-23" fill="#FFFFFF" mask="url(#mask-2)"></path>
                </g>
                <g id="Group-28">
                    <mask id="mask-4" fill="white">
                        <use xlink:href="#path-3"></use>
                    </mask>
                    <g id="Clip-27"></g>
                    <path d="M5.85778246,34.1420646 C-1.95279634,26.3314167 -1.95279634,13.6681789 5.85778246,5.85753099 C13.6683613,-1.95261143 26.3314871,-1.95261143 34.1420659,5.85753099 C41.9526447,13.6681789 41.9526447,26.3314167 34.1420659,34.1420646 C26.3314871,41.9527125 13.6683613,41.9527125 5.85778246,34.1420646" id="Fill-26" fill="#D500F9" mask="url(#mask-4)"></path>
                </g>
                <path d="M29.1662356,31 C30.7286217,31 32,29.7538646 32,28.2224993 L32,13.0340082 C32,11.9125362 31.0689787,11 29.9242803,11 L10.0752109,11 C8.93102133,11 8,11.9125362 8,13.0340082 L8,28.2224993 C8,29.7538646 9.2713783,31 10.8337644,31 C12.3961504,31 13.6675287,29.7538646 13.6675287,28.2224993 L13.6675287,18.2274858 C13.6675287,16.3804727 15.200407,14.8775307 17.0848349,14.8775307 L22.9151651,14.8775307 C24.799593,14.8775307 26.3324713,16.3804727 26.3324713,18.2274858 L26.3324713,28.2224993 C26.3324713,29.7538646 27.6038496,31 29.1662356,31 M22.8337644,21.431834 L22.8337644,28.2224993 C22.8337644,29.7538646 21.5623861,31 20,31 C18.4376139,31 17.1662356,29.7538646 17.1662356,28.2224993 L17.1662356,21.431834 C17.1662356,19.8999701 18.4376139,18.6543333 20,18.6543333 C21.5623861,18.6543333 22.8337644,19.8999701 22.8337644,21.431834" id="Fill-29" fill="#FFFFFF"></path>
            </g>
        </g>
    </g>
</svg>